:SAMPLES-PER-SECOND 30
:FULLY-SPECIFIED
:DEGREES
404
root  -24.9462 39.0988 -11.2705 -179.511 10.4674 -179.729
RightUpLeg  -17.6046 20.6436 0.900392
RightLeg  23.0119 15.295 5.86522
RightFoot  -3.97836 0.19432 -3.43493
RightToes  2.91037e-010 0 -3.6325e-017
Spine  10.1175 -1.32988 9.46929
Spine1  5.43665 -1.10377 2.32162
HEad  -35.6182 -47.7261 17.1241
LeftShoulder1  0.748216 1.43374 -30.0542
LeftArm  1.67714 16.6095 -37.702
LeftForeArm  15.9728 -17.4155 -5.6653
LeftHand  -0.0304601 3.80316 0.817464
RightShoulder  -0.579617 -5.20233 27.3677
RightArm  23.8844 3.42054 46.5109
RightForeArm  -1.51383 36.3713 8.35577
RightHand  -0.811411 5.50866 -8.94646
LeftUpLeg  -7.95048 -16.2748 14.9904
LeftLeg  21.1409 -19.2731 -7.7474
LeftFoot  -14.6171 -0.202091 -10.5593
LeftToes  -7.53974e-010 3.3384e-011 -1.25048e-011
405
root  -25.8189 39.0229 -11.1663 -178.653 18.3279 -179.821
RightUpLeg  -20.4506 27.921 -1.8117
RightLeg  23.1013 15.5732 6.89929
RightFoot  -4.1126 0.0553758 -1.33594
RightToes  2.91037e-010 0 -3.6325e-017
Spine  10.7591 -1.08115 7.09367
Spine1  5.69568 -1.10997 2.78751
HEad  -35.6408 -44.0295 17.0201
LeftShoulder1  0.729331 1.47838 -29.9147
LeftArm  0.673187 17.0743 -36.5581
LeftForeArm  15.3614 -18.0818 -5.25791
LeftHand  -0.0287975 3.58598 0.667814
RightShoulder  -0.563634 -5.16977 27.0656
RightArm  21.3149 4.39415 46.323
RightForeArm  -1.48997 35.4487 8.08454
RightHand  -0.803001 5.09506 -9.15381
LeftUpLeg  -6.20378 -10.575 13.6928
LeftLeg  20.8846 -19.4784 -7.71517
LeftFoot  -17.261 -0.371919 -9.14899
LeftToes  -7.53974e-010 3.3384e-011 -1.25048e-011
406
root  -26.6115 39.0873 -11.0359 -177.762 25.9963 179.545
RightUpLeg  -23.0355 31.7297 -4.83103
RightLeg  21.7795 18.4372 7.70413
RightFoot  -3.99814 -0.106428 1.2487
RightToes  2.91037e-010 0 -3.6325e-017
Spine  11.3668 -0.773145 3.62837
Spine1  5.40874 -1.21564 3.37273
HEad  -34.9339 -40.3942 16.3353
LeftShoulder1  0.660342 1.66775 -29.8698
LeftArm  -0.960051 17.1905 -35.3096
LeftForeArm  14.9418 -17.9635 -5.12576
LeftHand  -0.0357017 3.86815 1.22828
RightShoulder  -0.590891 -5.23802 27.3274
RightArm  18.3765 5.14662 45.799
RightForeArm  -0.534744 34.163 7.66649
RightHand  -0.69661 4.30334 -8.58855
LeftUpLeg  -4.80762 -2.75653 11.4091
LeftLeg  19.2283 -16.6714 -6.04692
LeftFoot  -17.1493 -0.217411 -6.28348
LeftToes  -7.53974e-010 3.3384e-011 -1.25048e-011
407
root  -27.3943 39.2032 -10.9294 -176.612 32.1137 179.801
RightUpLeg  -24.2583 30.913 -6.01449
RightLeg  19.1548 20.7524 7.11196
RightFoot  -4.32945 -0.240867 3.45215
RightToes  2.91037e-010 0 -3.6325e-017
Spine  11.8618 -1.07387 1.64756
Spine1  4.71265 -1.81027 3.84647
HEad  -33.5443 -36.6095 15.3337
LeftShoulder1  0.660227 1.67018 -29.9132
LeftArm  -2.62213 16.8193 -33.9462
LeftForeArm  15.2265 -16.6996 -5.33917
LeftHand  -0.0428965 4.08513 1.58449
RightShoulder  -0.613913 -5.30808 27.2994
RightArm  14.7998 4.59195 45.673
RightForeArm  -0.926346 32.7678 7.30598
RightHand  -0.804713 4.6727 -9.54969
LeftUpLeg  -4.64189 0.694638 10.0878
LeftLeg  18.3605 -13.3792 -4.55831
LeftFoot  -16.9361 -0.155221 -5.25062
LeftToes  -7.53974e-010 3.3384e-011 -1.25048e-011
408
root  -28.1389 39.3116 -10.8294 -175.622 37.6467 -179.547
RightUpLeg  -24.036 24.0005 -4.59549
RightLeg  16.8258 20.1218 4.80145
RightFoot  -5.03391 -0.244457 3.7693
RightToes  2.91037e-010 0 -3.6325e-017
Spine  12.4484 -1.30735 0.718595
Spine1  4.2762 -2.19747 4.21214
HEad  -32.5743 -33.19 14.6248
LeftShoulder1  0.714992 1.50834 -29.734
LeftArm  -4.7941 15.6987 -33.2347
LeftForeArm  16.2738 -14.9048 -5.5621
LeftHand  -0.0415448 4.20552 2.06417
RightShoulder  -0.595843 -5.26919 27.0197
RightArm  10.6865 3.0984 45.2545
RightForeArm  0.603712 31.8106 6.96942
RightHand  -0.611765 2.82946 -8.85365
LeftUpLeg  -4.62689 5.02046 9.65851
LeftLeg  18.289 -12.5828 -4.24823
LeftFoot  -17.064 -0.185662 -5.7615
LeftToes  -7.53974e-010 3.3384e-011 -1.25048e-011
409
root  -28.7553 39.4837 -10.8471 -174.998 43.4782 -179.527
RightUpLeg  -23.593 14.3828 -3.15012
RightLeg  14.8276 16.7184 2.47953
RightFoot  -6.89834 -0.15305 2.77523
RightToes  2.91037e-010 0 -3.6325e-017
Spine  11.8829 -1.22918 -0.259766
Spine1  4.91365 -2.22993 4.2087
HEad  -31.0408 -30.5179 13.3474
LeftShoulder1  0.715495 1.49862 -29.5816
LeftArm  -6.02311 14.6961 -33.1288
LeftForeArm  16.6766 -14.3257 -5.48301
LeftHand  -0.0440953 4.39471 2.52188
RightShoulder  -0.587886 -5.2195 27.5099
RightArm  8.34411 1.89558 43.6492
RightForeArm  -0.457883 30.1192 6.59539
RightHand  -0.578452 2.66219 -8.54654
LeftUpLeg  -3.71971 9.57961 8.61811
LeftLeg  16.7316 -11.62 -3.56182
LeftFoot  -16.4763 -0.180525 -6.22054
LeftToes  -7.53974e-010 3.3384e-011 -1.25048e-011
410
root  -29.1957 39.6092 -10.9535 -173.884 49.0593 -179.082
RightUpLeg  -23.7758 5.85354 -2.11645
RightLeg  13.1784 11.7412 1.20245
RightFoot  -8.95628 -0.123778 3.01782
RightToes  2.91037e-010 0 -3.6325e-017
Spine  11.0076 -1.18502 0.19872
Spine1  4.70416 -1.86064 3.02873
HEad  -28.7915 -28.5215 11.3073
LeftShoulder1  0.669742 1.6198 -29.4658
LeftArm  -5.7371 14.4548 -33.0787
LeftForeArm  15.8203 -15.2489 -5.28087
LeftHand  -0.0612321 3.68286 2.97276
RightShoulder  -0.621922 -5.31283 27.6576
RightArm  8.25421 -0.117657 42.1628
RightForeArm  -2.9483 27.7463 6.14546
RightHand  -0.652176 3.19313 -9.04121
LeftUpLeg  -3.15448 11.5563 7.72822
LeftLeg  15.408 -8.16594 -2.48325
LeftFoot  -16.153 -0.185866 -6.71287
LeftToes  -7.53974e-010 3.3384e-011 -1.25048e-011
411
root  -29.5209 39.7524 -11.0733 -173.082 55.0169 -178.478
RightUpLeg  -24.1469 0.17638 -1.77035
RightLeg  12.6384 8.49413 1.21464
RightFoot  -8.82472 -0.131149 3.25816
RightToes  2.91037e-010 0 -3.6325e-017
Spine  10.4169 -0.868515 0.557451
Spine1  4.50061 -1.35931 2.4445
HEad  -26.8144 -26.0376 9.69312
LeftShoulder1  0.53485 2.02002 -29.9316
LeftArm  -5.54356 14.572 -33.3307
LeftForeArm  14.8905 -17.0759 -4.80176
LeftHand  -0.0535805 3.81422 2.56531
RightShoulder  -0.487219 -4.92695 27.3716
RightArm  10.1468 -1.89307 40.1263
RightForeArm  -6.49165 25.0445 5.68677
RightHand  -0.692895 3.44784 -9.32119
LeftUpLeg  -1.58817 12.3723 6.96385
LeftLeg  13.2504 -3.05078 -1.49078
LeftFoot  -15.357 -0.142186 -6.68023
LeftToes  -7.53974e-010 3.3384e-011 -1.25048e-011
412
root  -29.6777 39.8855 -11.156 -172.648 60.0471 -177.586
RightUpLeg  -23.8914 -3.18278 -2.00482
RightLeg  12.8469 6.0554 1.19734
RightFoot  -7.93828 -0.136668 2.78172
RightToes  2.91037e-010 0 -3.6325e-017
Spine  10.3009 -0.768197 1.12093
Spine1  4.41534 -1.06564 1.74619
HEad  -24.6334 -23.0923 7.88641
LeftShoulder1  0.451625 2.24902 -29.8825
LeftArm  -4.97221 14.5804 -34.1083
LeftForeArm  12.7157 -18.7386 -4.5713
LeftHand  -0.0681103 3.33285 2.96739
RightShoulder  -0.453252 -4.83961 27.0236
RightArm  11.7744 -3.94431 38.9779
RightForeArm  -8.16108 22.5473 5.28925
RightHand  -0.604608 2.90621 -8.68677
LeftUpLeg  0.801368 12.1379 6.86035
LeftLeg  10.8558 1.95575 -1.30691
LeftFoot  -14.4812 -0.105153 -6.99206
LeftToes  -7.53974e-010 3.3384e-011 -1.25048e-011
413
root  -29.6907 39.9544 -11.2013 -171.886 64.0231 -176.421
RightUpLeg  -23.695 -5.41687 -2.59691
RightLeg  13.7399 3.51916 0.822984
RightFoot  -7.32479 -0.136807 2.47651
RightToes  2.91037e-010 0 -3.6325e-017
Spine  9.75747 -1.08512 1.35435
Spine1  4.8025 -1.40776 1.7246
HEad  -22.3813 -19.5676 6.25354
LeftShoulder1  0.323945 2.61021 -30.1749
LeftArm  -5.56854 14.0587 -34.9195
LeftForeArm  11.9448 -20.0044 -4.35683
LeftHand  -0.078016 2.89722 3.00643
RightShoulder  -0.484721 -4.91438 27.4549
RightArm  14.8151 -4.69656 36.8761
RightForeArm  -11.702 20.1303 5.2981
RightHand  -0.60339 3.07976 -8.38073
LeftUpLeg  2.86597 11.7456 7.08148
LeftLeg  8.92951 5.84563 -1.59005
LeftFoot  -13.911 -0.0798619 -7.26133
LeftToes  -7.53974e-010 3.3384e-011 -1.25048e-011
414
root  -29.582 39.9295 -11.2097 -171.791 67.4308 -175.97
RightUpLeg  -23.421 -7.45918 -3.7096
RightLeg  15.0891 1.81261 0.415357
RightFoot  -6.80478 -0.127212 2.0533
RightToes  2.91037e-010 0 -3.6325e-017
Spine  9.24428 -1.38071 0.950982
Spine1  5.05382 -1.92071 2.37185
HEad  -20.5235 -16.1275 4.39996
LeftShoulder1  0.269051 2.77457 -30.7813
LeftArm  -4.51251 12.921 -35.5112
LeftForeArm  10.914 -21.1422 -4.35655
LeftHand  -0.0822582 3.17772 3.546
RightShoulder  -0.383284 -4.64509 26.5779
RightArm  14.685 -7.29532 35.9814
RightForeArm  -10.8594 19.3435 5.28513
RightHand  -0.410121 1.83692 -6.67248
LeftUpLeg  4.48909 11.3232 6.76239
LeftLeg  7.95602 9.42377 -1.52713
LeftFoot  -13.7826 -0.0798659 -7.61138
LeftToes  -7.53974e-010 3.3384e-011 -1.25048e-011
415
root  -29.3378 39.8652 -11.1595 -172.324 70.2679 -175.799
RightUpLeg  -22.5742 -9.13427 -5.00698
RightLeg  16.6384 0.464624 -0.0370316
RightFoot  -6.22921 -0.0900414 1.07031
RightToes  2.91037e-010 0 -3.6325e-017
Spine  8.90931 -1.71502 0.614809
Spine1  5.46673 -2.44735 2.80955
HEad  -19.0121 -13.9489 2.51834
LeftShoulder1  0.283637 2.72811 -30.478
LeftArm  -3.82627 11.0314 -36.8452
LeftForeArm  11.7836 -21.0221 -4.35893
LeftHand  -0.0876238 3.13411 3.78904
RightShoulder  -0.479808 -4.92129 26.9968
RightArm  14.0931 -9.9767 34.3526
RightForeArm  -12.8714 19.7613 5.30192
RightHand  -0.6905 3.56414 -9.23438
LeftUpLeg  6.6424 11.2532 6.63957
LeftLeg  6.87201 12.048 -1.50546
LeftFoot  -13.7715 -0.0903437 -8.13101
LeftToes  -7.53974e-010 3.3384e-011 -1.25048e-011
416
root  -28.9965 39.7619 -11.0372 -172.427 72.8997 -175.805
RightUpLeg  -22.2816 -10.1111 -6.10393
RightLeg  18.2821 -1.07912 -0.605071
RightFoot  -5.95456 -0.0485709 0.166187
RightToes  2.91037e-010 0 -3.6325e-017
Spine  8.32843 -2.0688 -0.105212
Spine1  5.3774 -3.13105 3.83947
HEad  -17.3632 -11.5791 0.880402
LeftShoulder1  0.137949 3.13154 -30.9429
LeftArm  -2.5297 9.30656 -37.6119
LeftForeArm  12.4867 -21.6296 -4.31626
LeftHand  -0.0865166 2.96611 3.50188
RightShoulder  -0.461193 -4.8686 26.912
RightArm  12.5169 -12.8613 33.2903
RightForeArm  -11.4431 20.2348 5.13874
RightHand  -0.641055 3.79624 -8.34959
LeftUpLeg  7.99737 11.5088 6.65683
LeftLeg  6.32905 14.0172 -1.65373
LeftFoot  -13.9527 -0.118974 -8.86204
LeftToes  -7.53974e-010 3.3384e-011 -1.25048e-011
417
root  -28.5264 39.628 -10.8423 -172.497 75.4945 -175.685
RightUpLeg  -21.4449 -11.0104 -6.74542
RightLeg  19.2304 -1.87285 -0.933972
RightFoot  -6.01301 -0.0210996 -0.419907
RightToes  2.91037e-010 0 -3.6325e-017
Spine  7.48662 -2.2344 -0.837843
Spine1  5.78074 -3.65795 4.97333
HEad  -15.2203 -9.37168 -0.163605
LeftShoulder1  0.043892 3.38672 -31.3142
LeftArm  -1.73032 7.63669 -38.5486
LeftForeArm  12.9793 -22.1377 -4.28427
LeftHand  -0.0959419 3.09902 4.19493
RightShoulder  -0.516713 -5.03848 26.8599
RightArm  10.873 -15.4178 32.7347
RightForeArm  -10.6739 20.3072 5.01213
RightHand  -0.56794 3.95242 -7.32719
LeftUpLeg  9.63123 11.6544 6.85447
LeftLeg  5.81123 15.6051 -1.6975
LeftFoot  -14.1642 -0.16168 -9.97942
LeftToes  -7.53974e-010 3.3384e-011 -1.25048e-011
418
root  -27.9889 39.4837 -10.5508 -171.805 77.8358 -175.003
RightUpLeg  -20.3963 -11.7217 -6.73977
RightLeg  19.4801 -2.16209 -1.05867
RightFoot  -5.95122 0.00375436 -0.926912
RightToes  2.91037e-010 0 -3.6325e-017
Spine  7.1803 -2.40874 -1.33586
Spine1  5.20719 -4.06622 5.9408
HEad  -12.6115 -7.04091 -1.14175
LeftShoulder1  -0.0314393 3.58783 -31.3579
LeftArm  -1.66604 6.69563 -39.526
LeftForeArm  13.5236 -22.8466 -4.26347
LeftHand  -0.0928955 2.75818 3.54726
RightShoulder  -0.587149 -5.23822 27.0865
RightArm  9.42413 -17.5319 32.8148
RightForeArm  -12.4135 19.083 4.87384
RightHand  -0.772676 3.54749 -10.2813
LeftUpLeg  10.9208 11.9254 7.39252
LeftLeg  5.65627 16.5938 -1.72503
LeftFoot  -14.3557 -0.203525 -10.9591
LeftToes  -7.53974e-010 3.3384e-011 -1.25048e-011
